/* XPM */
static char * bottom_left_xpm[] = {
"8 33 7 1",
" 	c None",
".	c #000000",
"+	c #103039",
"@	c #10404A",
"#	c #94B2B4",
"$	c #528183",
"%	c #18505A",
".++++@+.",
".++++++.",
".######.",
".####@+.",
".#$%%@+.",
".#$%%@+.",
".#$%%@+.",
".#$%%@+.",
".#$%%@+.",
".#$%%@+.",
".#$%%@+.",
".#$%%@+.",
".#$%%@+.",
".#$%%@+.",
".#$%%@+.",
".#$%%@+.",
".#$%%@+.",
".#$%%@+.",
".#$%%@+.",
".#$%%@+.",
".#$%%@+.",
".#$%%@+.",
".#$%%@+.",
".#$%%@+.",
".#$%%@+.",
".#$%%@+.",
".#$%%@+#",
".#$%%@+$",
".#$%%%%%",
".#$%%%%%",
".#$@@@@@",
".#++++++",
"........"};
