/* XPM */
static char * bottom_right_unf_xpm[] = {
"8 33 7 1",
" 	c None",
".	c #000000",
"+	c #ACB6BD",
"@	c #627983",
"#	c #415D62",
"$	c #293839",
"%	c #31484A",
".+@#$$$.",
".+$$$$$.",
".++++++.",
".+@#+++.",
".+@##%$.",
".+@##%$.",
".+@##%$.",
".+@##%$.",
".+@##%$.",
".+@##%$.",
".+@##%$.",
".+@##%$.",
".+@##%$.",
".+@##%$.",
".+@##%$.",
".+@##%$.",
".+@##%$.",
".+@##%$.",
".+@##%$.",
".+@##%$.",
".+@##%$.",
".+@##%$.",
".+@##%$.",
".+@##%$.",
".+@##%$.",
".+@##%$.",
"++@##%$.",
"@@@##%$.",
"#####%$.",
"#####%$.",
"%%%%%%$.",
"$$$$$$$.",
"........"};
