/* XPM */
static char * button_full_hov_xpm[] = {
"25 31 7 1",
" 	c None",
".	c #94B2B4",
"+	c #528183",
"@	c #18505A",
"#	c #10404A",
"$	c #103039",
"%	c #000000",
".........................",
"+++++++++++++++++++++++++",
"@@@@@@@@@@@@@@@@@@@@@@@@@",
"@@@@@@@@@@@@@@@@@@@@@@@@@",
"#########################",
"$$$$$$$$$$$$$$$$$$$$$$$$$",
"%%%%%%%%%%%%%%%%%%%%%%%%%",
"......................$..",
"+++++++++++++++++++++#$.+",
"@@%%%%%%%%%%%%%%@@@@@#$.+",
"@@%@@@@@@@@@@@@%@@@@@#$.+",
"@@%@@@@@@@@@@@@%@@@@@#$.+",
"@@%@@@@@@@@@@@@%%%@@@#$.+",
"@@%@@@@@@@@@@@@%%%@@@#$.+",
"@@%@@@@@@@@@@@@%%%@@@#$.+",
"@@%@@@@@@@@@@@@%%%@@@#$.+",
"@@%@@@@@@@@@@@@%%%@@@#$.+",
"@@%@@@@@@@@@@@@%%%@@@#$.+",
"@@%@@@@@@@@@@@@%%%@@@#$.+",
"@@%@@@@@@@@@@@@%%%@@@#$.+",
"@@%@@@@@@@@@@@@%%%@@@#$.+",
"@@%@@@@@@@@@@@@%%%@@@#$.+",
"@@%@@@@@@@@@@@@%%%@@@#$.+",
"@@%@@@@@@@@@@@@%%%@@@#$.+",
"@@%%%%%%%%%%%%%%%%@@@#$.+",
"@@@@@%%%%%%%%%%%%%@@@#$.+",
"@@@@@%%%%%%%%%%%%%@@@#$.+",
"@@@@@@@@@@@@@@@@@@@@@#$.+",
"######################$.+",
"$$$$$$$$$$$$$$$$$$$$$$$$$",
"%%%%%%%%%%%%%%%%%%%%%%%%%"};
