/* XPM */
static char * button_close_unf_xpm[] = {
"27 31 7 1",
" 	c None",
".	c #ACB6BD",
"+	c #293839",
"@	c #627983",
"#	c #415D62",
"$	c #31484A",
"%	c #000000",
".......................++..",
"@@@@@@@@@@@@@@@@@@@@@@@++..",
"#######################++..",
"#######################++..",
"$$$$$$$$$$$$$$$$$$$$$$$$+.$",
"+++++++++++++++++++++++++.+",
"%%%%%%%%%%%%%%%%%%%%%%%%%%%",
"........................+..",
".@@@@@@@@@@@@@@@@@@@@@@$+.@",
".@#####################$+.@",
".@#####################$+.@",
".@#####################$+.@",
".@#####################$+.@",
".@#####################$+.@",
".@#####################$+.@",
".@#####################$+.@",
".@##%%%%%%%%%%%%%%%%%##$+.@",
".@##%###############%##$+.@",
".@##%###############%%#$+.@",
".@##%%%%%%%%%%%%%%%%%%#$+.@",
".@####%%%%%%%%%%%%%%%%#$+.@",
".@#####################$+.@",
".@#####################$+.@",
".@#####################$+.@",
".@#####################$+.@",
".@#####################$+.@",
".@#####################$+.@",
".@#####################$+.@",
".@$$$$$$$$$$$$$$$$$$$$$$+.@",
".++++++++++++++++++++++++++",
"%%%%%%%%%%%%%%%%%%%%%%%%%%%"};
