/* XPM */
static char * button_full_unf_xpm[] = {
"25 31 7 1",
" 	c None",
".	c #ACB6BD",
"+	c #627983",
"@	c #415D62",
"#	c #31484A",
"$	c #293839",
"%	c #000000",
".........................",
"+++++++++++++++++++++++++",
"@@@@@@@@@@@@@@@@@@@@@@@@@",
"@@@@@@@@@@@@@@@@@@@@@@@@@",
"#########################",
"$$$$$$$$$$$$$$$$$$$$$$$$$",
"%%%%%%%%%%%%%%%%%%%%%%%%%",
"......................$..",
"+++++++++++++++++++++#$.+",
"@@@@@@@@@@@@@@@@@@@@@#$.+",
"@@@%%%%%%%%%%%%%%@@@@#$.+",
"@@@%@@@@@@@@@@@@%@@@@#$.+",
"@@@%@@@@@@@@@@@@%%@@@#$.+",
"@@@%@@@@@@@@@@@@%%@@@#$.+",
"@@@%@@@@@@@@@@@@%%@@@#$.+",
"@@@%@@@@@@@@@@@@%%@@@#$.+",
"@@@%@@@@@@@@@@@@%%@@@#$.+",
"@@@%@@@@@@@@@@@@%%@@@#$.+",
"@@@%@@@@@@@@@@@@%%@@@#$.+",
"@@@%@@@@@@@@@@@@%%@@@#$.+",
"@@@%@@@@@@@@@@@@%%@@@#$.+",
"@@@%@@@@@@@@@@@@%%@@@#$.+",
"@@@%@@@@@@@@@@@@%%@@@#$.+",
"@@@%@@@@@@@@@@@@%%@@@#$.+",
"@@@%@@@@@@@@@@@@%%@@@#$.+",
"@@@%%%%%%%%%%%%%%%@@@#$.+",
"@@@@@%%%%%%%%%%%%%@@@#$.+",
"@@@@@@@@@@@@@@@@@@@@@#$.+",
"######################$.+",
"$$$$$$$$$$$$$$$$$$$$$$$$$",
"%%%%%%%%%%%%%%%%%%%%%%%%%"};
