/* XPM */
static char * right_border_unf_xpm[] = {
"8 16 7 1",
" 	c None",
".	c #000000",
"+	c #ACB6BD",
"@	c #627983",
"#	c #415D62",
"$	c #31484A",
"%	c #293839",
".+@##$%.",
".+@##$%.",
".+@##$%.",
".+@##$%.",
".+@##$%.",
".+@##$%.",
".+@##$%.",
".+@##$%.",
".+@##$%.",
".+@##$%.",
".+@##$%.",
".+@##$%.",
".+@##$%.",
".+@##$%.",
".+@##$%.",
".+@##$%."};
