/* XPM */
static char * right_border_xpm[] = {
"8 16 7 1",
" 	c None",
".	c #000000",
"+	c #94B2B4",
"@	c #528183",
"#	c #18505A",
"$	c #10404A",
"%	c #103039",
".+@##$%.",
".+@##$%.",
".+@##$%.",
".+@##$%.",
".+@##$%.",
".+@##$%.",
".+@##$%.",
".+@##$%.",
".+@##$%.",
".+@##$%.",
".+@##$%.",
".+@##$%.",
".+@##$%.",
".+@##$%.",
".+@##$%.",
".+@##$%."};
