/* XPM */
static char * title_unf_xpm[] = {
"8 31 7 1",
" 	c None",
".	c #ACB6BD",
"+	c #627983",
"@	c #415D62",
"#	c #31484A",
"$	c #293839",
"%	c #000000",
"........",
"++++++++",
"@@@@@@@@",
"@@@@@@@@",
"########",
"$$$$$$$$",
"%%%%%%%%",
"........",
"++++++++",
"@@@@@@@@",
"@@@@@@@@",
"@@@@@@@@",
"@@@@@@@@",
"@@@@@@@@",
"@@@@@@@@",
"@@@@@@@@",
"@@@@@@@@",
"@@@@@@@@",
"@@@@@@@@",
"@@@@@@@@",
"@@@@@@@@",
"@@@@@@@@",
"@@@@@@@@",
"@@@@@@@@",
"@@@@@@@@",
"@@@@@@@@",
"@@@@@@@@",
"@@@@@@@@",
"########",
"$$$$$$$$",
"%%%%%%%%"};
