/* XPM */
static char *slice____[] = {
/* columns rows colors chars-per-pixel */
"20 21 10 1",
"  c #000000",
". c #333333",
"X c #4C3C34",
"o c #666666",
"O c #987868",
"+ c #8f8f8f",
"@ c #D5A892",
"# c #b3b3b3",
"$ c #b5b5b5",
"% c #ffffff",
/* pixels */
"@@@@@@@@@@@@@@@@@@@X",
"@OOOOOOOOOOOOOOOOO@X",
"@OOOOOOOOOOOOOOOOO@X",
"@OOOOOOOOOOOOOOOOO@X",
"@OOOOOOOOOOOOOOOOO@X",
"@OOOOOOOOOOOOOOOOO@X",
"@OOOOOOOOOOOOOOOOO@X",
"@OOOOOO@@@@@XOOOOO@X",
"@OOOOOO@OOOOXOOOOO@X",
"@OOOOOO@OOOOXOOOOO@X",
"@OOOOOO@OOOOXOOOOO@X",
"@OOOOOO@OOOOXOOOOO@X",
"@OOOOOO@XXXXXOOOOO@X",
"@OOOOOOOOOOOOOOOOO@X",
"@OOOOOOOOOOOOOOOOO@X",
"@OOOOOOOOOOOOOOOOO@X",
"@OOOOOOOOOOOOOOOOO@X",
"@OOOOOOOOOOOOOOOOO@X",
"@XXXXXXXXXXXXXXXXXXX",
"XXXXXXXXXXXXXXXXXXXX",
"$$$$$$$$$$$$$$$$$$$$"};
