/* XPM */
static char * bottom_right_xpm[] = {
"31 9 5 1",
" 	c None",
".	c #000000",
"+	c #9C6868",
"@	c #312020",
"#	c #624141",
"...............................",
"+.++++++++++++++++++++++++++++.",
"@.+##########################@.",
"@.+##########################@.",
"@.+##########################@.",
"@.+##########################@.",
"@.+##########################@.",
"@.+@@@@@@@@@@@@@@@@@@@@@@@@@@@.",
"..............................."};
