/* XPM */
static char * bottom_border_xpm[] = {
"16 9 5 1",
" 	c None",
".	c #000000",
"+	c #9C6868",
"@	c #624141",
"#	c #312020",
"................",
"++++++++++++++++",
"@@@@@@@@@@@@@@@@",
"@@@@@@@@@@@@@@@@",
"@@@@@@@@@@@@@@@@",
"@@@@@@@@@@@@@@@@",
"@@@@@@@@@@@@@@@@",
"################",
"................"};
