/* XPM */
static char * bottom_left_xpm[] = {
"31 9 5 1",
" 	c None",
".	c #000000",
"+	c #9C6868",
"@	c #624141",
"#	c #312020",
"...............................",
".++++++++++++++++++++++++++++.+",
".+@@@@@@@@@@@@@@@@@@@@@@@@@@#.+",
".+@@@@@@@@@@@@@@@@@@@@@@@@@@#.+",
".+@@@@@@@@@@@@@@@@@@@@@@@@@@#.+",
".+@@@@@@@@@@@@@@@@@@@@@@@@@@#.+",
".+@@@@@@@@@@@@@@@@@@@@@@@@@@#.+",
".+###########################.+",
"..............................."};
