/* XPM */
static char * button_hide_unf_xpm[] = {
"22 22 6 1",
" 	c None",
".	c #68949C",
"+	c #000000",
"@	c #415D62",
"#	c #202E31",
"$	c #FFFFFF",
"....................+.",
"@@@@@@@@@@@@@@@@@@@#+.",
"@@@@@@@@@@@@@@@@@@@#+.",
"@@@@@@@@@@@@@@@@@@@#+.",
"@@@@@@@@@@@@@@@@@@@#+.",
"@@@@@@@@@@@@@@@@@@@#+.",
"@@@@@@@@@@@@@@@@@@@#+.",
"@@@@@@@@@@@@@@@@@@@#+.",
"@@@@@$$@@@@@@$$@@@@#+.",
"@@@@@$$$@@@@$$$@@@@#+.",
"@@@@@@$$$@@$$$@@@@@#+.",
"@@@@@@@$$$$$$@@@@@@#+.",
"@@@@@@@@$$$$@@@@@@@#+.",
"@@@@@@@@@$$@@@@@@@@#+.",
"@@@@@@@@@@@@@@@@@@@#+.",
"@@@@@@@@@@@@@@@@@@@#+.",
"@@@@@@@@@@@@@@@@@@@#+.",
"@@@@@@@@@@@@@@@@@@@#+.",
"@@@@@@@@@@@@@@@@@@@#+.",
"@@@@@@@@@@@@@@@@@@@#+.",
"####################+.",
"++++++++++++++++++++++"};
