/* XPM */
static char * menuline_xpm[] = {
"8 3 4 1",
" 	c None",
".	c #312020",
"+	c #000000",
"@	c #9C6868",
"........",
"++++++++",
"@@@@@@@@"};
