/* XPM */
static char * menu_bottom_right_unf_xpm[] = {
"2 2 3 1",
" 	c None",
".	c #68949C",
"+	c #000000",
".+",
"++"};
