/* XPM */
static char * menu_right_xpm[] = {
"2 8 3 1",
" 	c None",
".	c #312020",
"+	c #000000",
".+",
".+",
".+",
".+",
".+",
".+",
".+",
".+"};
