/* XPM */
static char * tab_separator_xpm[] = {
"3 22 4 1",
" 	c None",
".	c #9C6868",
"+	c #000000",
"@	c #312020",
".+.",
"@+.",
"@+.",
"@+.",
"@+.",
"@+.",
"@+.",
"@+.",
"@+.",
"@+.",
"@+.",
"@+.",
"@+.",
"@+.",
"@+.",
"@+.",
"@+.",
"@+.",
"@+.",
"@+.",
"@+.",
"+++"};
