/* XPM */
static char * top_right_unf_xpm[] = {
"2 23 4 1",
" 	c None",
".	c #000000",
"+	c #68949C",
"@	c #202E31",
"..",
"+.",
"@.",
"@.",
"@.",
"@.",
"@.",
"@.",
"@.",
"@.",
"@.",
"@.",
"@.",
"@.",
"@.",
"@.",
"@.",
"@.",
"@.",
"@.",
"@.",
"@.",
".."};
