/* XPM */
static char * top_left_xpm[] = {
"2 23 3 1",
" 	c None",
".	c #000000",
"+	c #9C6868",
"..",
".+",
".+",
".+",
".+",
".+",
".+",
".+",
".+",
".+",
".+",
".+",
".+",
".+",
".+",
".+",
".+",
".+",
".+",
".+",
".+",
".+",
".."};
